<svg xmlns="http://www.w3.org/2000/svg" viewBox="0 0 481.29 481.29"><defs><style>.cls-1{fill:#fff;}.cls-2{fill:#1d1d1b;}.cls-3{fill:none;stroke:#1d1d1b;stroke-miterlimit:10;stroke-width:22px;}</style></defs><title>Ativo 6</title><g id="Camada_2" data-name="Camada 2"><g id="Camada_5" data-name="Camada 5"><rect class="cls-1" width="481.29" height="481.29" rx="240.65"/></g><g id="Camada_3_cópia_2" data-name="Camada 3 cópia 2"><path class="cls-2" d="M258.35,136.37c9.27-65.91-2.51-41.43,49.5-81.13,3.31-1.05,3.84,1.32.66,8.2-23.42,30.31-33.61,51.62-35.86,84.18Z"/><path class="cls-2" d="M303.71,213.53c-.52-5.28-3.27-10.68-9.18-16.24,3.72-37.09-24.37-40.74-43.41-62.82,6.21-9.38,7.35-23.64,6.7-40.94,11.52-24.72,34.29-61.1,27.53-59.24-3,.83-17.74,18.29-35.47,29.24-14.83,9.16-28,20.07-33,25.06-58.1,14.91-102.51,91.8-134.12,226.59,39-13.65,74.39-11.85,109,24,16.34,19.65,23.6,36.6,21.59,50.82,36.86,4.75,65.41,22,84,54.29,5.88-44.15-7.57-87.62-36.7-130.53-18-16.21-26.14-30.95-26.12-44.47,2.86-16.94,11.31-20.06,24-12.7,15.17,11.32,29.19,19.6,40.94,21.88,8.34-1.31,15.93-2,21.18,0,18.18,2.71,35,3.73,35.41-6.35C356.45,263,326.76,236.87,303.71,213.53Zm-43.42-17.91c-5.21-14.51-14.59-26.24-21.78-35,6.79,6.08,14.08,11.38,24.32,13.24,17.14,2.83,21.2,4.33,26.23,34.33C280.8,202,270.66,197.84,260.29,195.62Z"/><path class="cls-2" d="M256.06,176.29c3.87,6.27,6.68,11.83,6.7,15.53a72.66,72.66,0,0,1,20.83,8.65,42.35,42.35,0,0,0-4.41-16c-4.5,13.67-6.21,9-6.71-3.74A41.48,41.48,0,0,0,256.06,176.29Z"/></g><g id="Camada_4" data-name="Camada 4"><circle class="cls-3" cx="240.97" cy="240.61" r="226.02"/></g></g></svg>